# xmcd
#
# Track frame offsets:
#	150
#	19312
#	35912
#
# Disc length: 1127 seconds
#
# Revision: 1
# Processed by: cddbd v1.5.1PL0 Copyright (c) Steve Scherf et al.
# Submitted via: CDex 1.50Beta5
#
DISCID=23046503
DTITLE=Blankey Jet City - 青い花
DYEAR=1900
DGENRE=Rock
TTITLE0=青い花
TTITLE1=CAT WAS DEAD(LIVE VERSION)
TTITLE2=悪い人達(LIVE VERSION with ORCHESTRA)
EXTD=
EXTT0=
EXTT1=
EXTT2=
PLAYORDER=
